<svg xmlns="http://www.w3.org/2000/svg" width="100" height="100" viewBox="0 0 100 100"><path d="M50,0A50,50,0,1,1,0,50,50,50,0,0,1,50,0Z" transform="translate(0 0)" fill="#ef7d00"/><path d="M69.04,63.081l-1.675.229c-3.859.53-7.736.892-11.62,1.121,13.368-4.7,15.674-17.981,15.7-18.144a1.339,1.339,0,0,0-2.644-.425c-.116.716-3.093,17.518-23.275,17.518-7.8,0-20.276-5.291-20.538-19.491a7.22,7.22,0,0,1,.363-2.442c12.316,3.784,30.911,3.238,38.508-.242,3.638-1.667,4.378-3.717,4.36-5.144-.017-1.336-.894-2.5-2.605-3.453-2.229-1.244-5.975-2.142-10.342-2.575a12.362,12.362,0,0,1,2.645-7.025,14.978,14.978,0,0,0,3.137-9.4,1.339,1.339,0,1,0-2.678,0A12.255,12.255,0,0,1,55.7,21.515a15.119,15.119,0,0,0-3.09,8.317c-1.887-.1-3.85-.118-5.829-.041a12.378,12.378,0,0,1,2.635-6.782,14.978,14.978,0,0,0,3.139-9.4,1.339,1.339,0,0,0-2.679,0,12.248,12.248,0,0,1-2.681,7.909A15.109,15.109,0,0,0,44.1,29.952c-1.853.151-3.7.39-5.476.717a12.281,12.281,0,0,1,2.672-7.66,14.985,14.985,0,0,0,3.136-9.4,1.339,1.339,0,0,0-2.678,0,12.248,12.248,0,0,1-2.681,7.909,14.986,14.986,0,0,0-3.137,9.4,1.288,1.288,0,0,0,.064.314,28,28,0,0,0-7.6,2.957,13.621,13.621,0,0,0-4.391,4,18.334,18.334,0,0,1-5.566-3.154,1.338,1.338,0,1,0-1.774,2,20.529,20.529,0,0,0,6.16,3.53,9.921,9.921,0,0,0-.509,3.366,21.21,21.21,0,0,0,8.1,16.834,24.505,24.505,0,0,0,6.431,3.6q-5.3-.351-10.578-1.068l-1.674-.229a1.339,1.339,0,0,0-.363,2.653l1.674.23a154.355,154.355,0,0,0,20.912,1.424A154.359,154.359,0,0,0,67.73,65.964l1.674-.23a1.339,1.339,0,1,0-.363-2.653ZM29.768,36.488c9.093-5.454,28.458-4.935,34.542-1.54.967.539,1.231.976,1.233,1.149.016,1.2-1.747,2.193-2.8,2.675-7.082,3.245-24.583,3.7-36.082.318A11.6,11.6,0,0,1,29.768,36.488Z" transform="translate(3.092 2.014)" fill="#fff"/></svg>