<svg xmlns="http://www.w3.org/2000/svg" width="100" height="100" viewBox="0 0 100 100"><g transform="translate(0 0)"><circle cx="50" cy="50" r="50" fill="#ff9abf"/></g><path d="M74.7,67.152H68.991l-4.6-51.268a1.338,1.338,0,0,0-1.333-1.219h-12.1a13.456,13.456,0,0,0-13.44,13.44v1.1H35.691A20.438,20.438,0,0,0,15.252,49.642v8.448A13,13,0,0,0,28.235,71.072a44.96,44.96,0,0,0,12.521-1.389,42.745,42.745,0,0,0,7.767.452,1.338,1.338,0,0,0-.02-2.676h-.021c-.994.014-2.083.014-3.2-.028a7.452,7.452,0,0,0,2.871-6.114c0-4.965-4.111-7.565-8.17-7.565-4.078,0-8.207,2.664-8.207,7.753a6.962,6.962,0,0,0,2.083,5.153A8.713,8.713,0,0,0,35.649,68a60.383,60.383,0,0,1-7.415.395,10.314,10.314,0,0,1-10.3-10.3V49.642A17.761,17.761,0,0,1,35.691,31.882h1.862a5.546,5.546,0,0,1,5.539,5.541V50.709a1.339,1.339,0,0,0,2.679,0V37.423A8.226,8.226,0,0,0,40.2,29.649V28.106A10.774,10.774,0,0,1,50.957,17.344H61.835L66.3,67.152H60.535a1.339,1.339,0,1,0,0,2.679H74.7a1.339,1.339,0,0,0,0-2.679Zm-40.25-5.646c0-3.505,2.777-5.075,5.53-5.075A6.184,6.184,0,0,1,43.835,57.7a4.434,4.434,0,0,1,1.639,3.621c0,2.6-1.589,4.453-4.894,5.609a9.58,9.58,0,0,1-4.843-2.176A4.32,4.32,0,0,1,34.453,61.506Z" transform="translate(2.969 2.809)" fill="#fff"/></svg>