<svg xmlns="http://www.w3.org/2000/svg" width="100" height="100" viewBox="0 0 100 100"><circle cx="50" cy="50" r="50" transform="translate(0 0)" fill="#91be1e"/><g transform="translate(18.504 19.488)"><path d="M35.347,57.22a1.34,1.34,0,0,0-1.645.938L33.361,59.4a1.339,1.339,0,0,0,.938,1.645,1.379,1.379,0,0,0,.355.048,1.342,1.342,0,0,0,1.29-.986l.341-1.243A1.338,1.338,0,0,0,35.347,57.22Z" transform="translate(-12.616 -9.62)" fill="#fff"/><path d="M33.592,63.631a1.341,1.341,0,0,0-1.645.938l-.341,1.243a1.339,1.339,0,0,0,.938,1.645,1.386,1.386,0,0,0,.355.048,1.341,1.341,0,0,0,1.29-.986l.341-1.243A1.338,1.338,0,0,0,33.592,63.631Z" transform="translate(-12.905 -8.568)" fill="#fff"/><path d="M37.1,50.808a1.341,1.341,0,0,0-1.645.937l-.341,1.246a1.339,1.339,0,0,0,.938,1.645,1.377,1.377,0,0,0,.354.048A1.342,1.342,0,0,0,37.7,53.7l.341-1.244A1.34,1.34,0,0,0,37.1,50.808Z" transform="translate(-12.328 -10.673)" fill="#fff"/><path d="M59.317,52.6l-.466-1.2a1.339,1.339,0,0,0-2.5.969l.467,1.2a1.339,1.339,0,0,0,2.5-.969Z" transform="translate(-8.849 -10.708)" fill="#fff"/><path d="M63.2,51.007l-.293-.757c1.731-.276,3.516-.6,5.383-1a1.34,1.34,0,0,0,1.173-1.328c0-10.156-3.566-21.5-12.734-27.445A36.445,36.445,0,0,1,67.441,19a1.338,1.338,0,1,0,0-2.676,37.172,37.172,0,0,0-13.819,2.449,29.154,29.154,0,0,0-12.207-2.449c-9.363,0-16.63,5.167-21.012,14.941-4.235,9.443-4.867,20.9-4.867,26.885a1.339,1.339,0,0,0,2.679,0c0-9.184,1.672-39.15,23.2-39.15a28.17,28.17,0,0,1,8.892,1.336,27.371,27.371,0,0,0-9.434,8.589,35.444,35.444,0,0,0-5.883,19,1.34,1.34,0,0,0,1.016,1.3c1.572.391,3.106.718,4.623.994l-.263.962a1.338,1.338,0,0,0,.938,1.645,1.377,1.377,0,0,0,.354.048,1.342,1.342,0,0,0,1.291-.986l.34-1.24a59.137,59.137,0,0,0,7.588.569v1a1.339,1.339,0,1,0,2.679,0v-1.03c2.151-.071,4.361-.258,6.66-.552a1.308,1.308,0,0,0,.023.135l.468,1.2a1.339,1.339,0,1,0,2.5-.969ZM53.516,21.679c9.252,4.747,13.008,15.092,13.259,25.155C55.57,49.1,47.233,49.108,37.7,46.878,37.943,42.734,39.765,27.825,53.516,21.679Z" transform="translate(-15.535 -16.326)" fill="#fff"/><path d="M61.724,58.8l-.467-1.2a1.339,1.339,0,1,0-2.5.969l.466,1.2a1.339,1.339,0,0,0,2.5-.969Z" transform="translate(-8.454 -9.691)" fill="#fff"/><path d="M63.813,64.181l-.15-.389a1.34,1.34,0,0,0-2.5.971l.151.389a1.339,1.339,0,1,0,2.5-.971Z" transform="translate(-8.059 -8.674)" fill="#fff"/><path d="M47.233,64.843a1.34,1.34,0,0,0-1.34,1.339V66.6a1.339,1.339,0,0,0,2.679,0v-.418A1.34,1.34,0,0,0,47.233,64.843Z" transform="translate(-10.551 -8.361)" fill="#fff"/><path d="M47.233,58.195a1.341,1.341,0,0,0-1.34,1.34v1.289a1.339,1.339,0,1,0,2.679,0V59.535A1.341,1.341,0,0,0,47.233,58.195Z" transform="translate(-10.551 -9.452)" fill="#fff"/><path d="M47.233,51.548a1.34,1.34,0,0,0-1.34,1.339v1.29a1.339,1.339,0,0,0,2.679,0v-1.29A1.34,1.34,0,0,0,47.233,51.548Z" transform="translate(-10.551 -10.544)" fill="#fff"/></g></svg>