<svg xmlns="http://www.w3.org/2000/svg" width="100" height="100" viewBox="0 0 100 100"><g transform="translate(0 0)"><circle cx="50" cy="50" r="50" fill="#27cde8"/></g><g transform="translate(19.63 17.445)"><path d="M61.744,49.395a44.777,44.777,0,0,0,2.392-10.1,1.366,1.366,0,0,0-2.714-.311A42.138,42.138,0,0,1,53.16,59.607l-6.1,8.062c-2.448-10.7-11.153-16.508-13.92-18.114A44.81,44.81,0,0,0,35.585,39.3a1.366,1.366,0,0,0-2.714-.311A42.124,42.124,0,0,1,24.61,59.607l-7.389,9.761a1.366,1.366,0,1,0,2.178,1.65l7.388-9.761A44.806,44.806,0,0,0,32.1,52.13c2.835,1.742,10.7,7.37,12.489,17.1l.21,1.13a1.367,1.367,0,0,0,1.342,1.115,1.477,1.477,0,0,0,.227-.02,1.329,1.329,0,0,0,1.576-.442l7.39-9.761a44.845,44.845,0,0,0,5.388-9.288c2.552,1.512,10.9,7.155,12.755,17.267l.213,1.13a1.365,1.365,0,0,0,1.341,1.114,1.4,1.4,0,0,0,.252-.024,1.364,1.364,0,0,0,1.09-1.594l-.21-1.125C74,56.952,64.218,50.782,61.744,49.395Z" transform="translate(-16.944 -10.799)" fill="#fff"/><path d="M75.635,46.776c-2.14,0-5.566-4.028-8.724-10.26-.732-1.443-1.394-2.887-1.981-4.283C68.8,28.59,71.724,25,71.724,21.708c0-4.905-3.074-6.645-5.707-6.645a6.848,6.848,0,0,0-6.845,6.645c0,1.91.957,5.648,2.527,9.779-1.668,1.5-3.431,2.988-5.076,4.373-5.553,4.676-9.281,7.939-10.311,10.758-2.138-.784-5.148-4.572-7.952-10.1-.717-1.417-1.369-2.836-1.948-4.209,3.841-3.671,6.761-7.291,6.761-10.6,0-4.905-3.074-6.645-5.706-6.645a6.848,6.848,0,0,0-6.845,6.645c0,1.923.972,5.7,2.561,9.868-1.613,1.475-3.313,2.932-4.9,4.292-6.466,5.538-10.428,9.094-10.428,12.274a1.366,1.366,0,0,0,2.733,0c0-2.083,5.252-6.584,9.472-10.2,1.419-1.216,2.851-2.442,4.219-3.667,3.228,7.5,8.136,15.231,12.8,15.231a1.2,1.2,0,0,0,.147-.03,1.262,1.262,0,0,0,.148.03,1.365,1.365,0,0,0,1.366-1.365c0-2.076,5.342-6.576,9.637-10.192,1.485-1.251,2.979-2.51,4.405-3.769,3.228,7.528,8.158,15.325,12.846,15.325a1.365,1.365,0,1,0,0-2.731ZM33.355,21.708a4.078,4.078,0,0,1,4.113-3.914c1.89,0,2.973,1.425,2.973,3.914,0,2.144-2.21,4.954-5.117,7.837A27.976,27.976,0,0,1,33.355,21.708Zm28.549,0a4.078,4.078,0,0,1,4.113-3.914c1.891,0,2.974,1.425,2.974,3.914,0,2.125-2.216,4.909-5.143,7.768A27.766,27.766,0,0,1,61.9,21.708Z" transform="translate(-16.773 -15.063)" fill="#fff"/></g></svg>