<svg xmlns="http://www.w3.org/2000/svg" width="120" height="120" viewBox="0 0 120 120"><g transform="translate(0)"><g transform="translate(0 0)"><circle cx="60" cy="60" r="60" fill="#f9ae00"/></g><g transform="translate(33.708 23.984)"><path d="M43.337,60.333a1.676,1.676,0,0,0,1.607,1.2,1.7,1.7,0,0,0,.472-.068,12.682,12.682,0,0,0,6.721-4.718A9.95,9.95,0,0,0,60.3,50.48a1.675,1.675,0,0,0-3.125-1.206,6.542,6.542,0,0,1-3.1,3.444,12.8,12.8,0,0,0,.421-2.291,6.1,6.1,0,0,0-12.159-1.113l-.055.606a6.1,6.1,0,0,0,5.457,6.628,9.4,9.4,0,0,1-3.27,1.707A1.676,1.676,0,0,0,43.337,60.333Zm2.288-10.11.055-.6a2.76,2.76,0,0,1,2.742-2.5,2.451,2.451,0,0,1,.252.012,2.758,2.758,0,0,1,2.491,2.994,9.444,9.444,0,0,1-.918,3.292l-2.131-.2A2.757,2.757,0,0,1,45.625,50.224Z" transform="translate(-16.574 -5.908)" fill="#fff"/><path d="M32.136,29.852H60.821a1.675,1.675,0,1,0,0-3.35H32.136a1.675,1.675,0,1,0,0,3.35Z" transform="translate(-21.965 -13.791)" fill="#fff"/><path d="M32.136,35.588H60.821a1.675,1.675,0,1,0,0-3.35H32.136a1.675,1.675,0,1,0,0,3.35Z" transform="translate(-21.965 -11.171)" fill="#fff"/><path d="M32.136,41.323H60.821a1.674,1.674,0,1,0,0-3.349H32.136a1.674,1.674,0,1,0,0,3.349Z" transform="translate(-21.965 -8.552)" fill="#fff"/><path d="M78.637,26.062h-3.76V23.469a5.7,5.7,0,0,0-5.691-5.693H30.321a5.7,5.7,0,0,0-5.693,5.693v50.5a5.7,5.7,0,0,0,5.693,5.691h3.758v3.758a5.7,5.7,0,0,0,5.693,5.691H73.12a1.676,1.676,0,1,0,0-3.352H39.772a2.343,2.343,0,0,1-2.342-2.339V79.664h26.24a1.676,1.676,0,1,0,0-3.352H30.321a2.343,2.343,0,0,1-2.341-2.339v-50.5a2.344,2.344,0,0,1,2.341-2.342H69.186a2.344,2.344,0,0,1,2.341,2.342V66.96a1.675,1.675,0,0,0,3.35,0V29.412h3.76a2.344,2.344,0,0,1,2.339,2.342V75.246a1.676,1.676,0,0,0,3.352,0V31.755A5.7,5.7,0,0,0,78.637,26.062Z" transform="translate(-24.628 -17.776)" fill="#fff"/></g></g></svg>